<svg xmlns="http://www.w3.org/2000/svg" viewBox="0 0 800 800">
  <defs>
    <linearGradient id="wolfGradient1" x1="0%" y1="0%" x2="100%" y2="100%">
      <stop offset="0%" style="stop-color:#4A90E2;stop-opacity:1" />
      <stop offset="100%" style="stop-color:#7DD3FC;stop-opacity:1" />
    </linearGradient>
    <linearGradient id="wolfGradient2" x1="0%" y1="0%" x2="100%" y2="100%">
      <stop offset="0%" style="stop-color:#1E3A5F;stop-opacity:1" />
      <stop offset="100%" style="stop-color:#2C5F8D;stop-opacity:1" />
    </linearGradient>
    <linearGradient id="binaryGradient" x1="0%" y1="0%" x2="100%" y2="100%">
      <stop offset="0%" style="stop-color:#00D4FF;stop-opacity:0.6" />
      <stop offset="100%" style="stop-color:#0099FF;stop-opacity:0.3" />
    </linearGradient>
  </defs>
  
  <!-- Binary code background -->
  <text x="500" y="200" font-family="monospace" font-size="20" fill="url(#binaryGradient)" opacity="0.5">
    01101000 01101001
  </text>
  <text x="520" y="240" font-family="monospace" font-size="18" fill="url(#binaryGradient)" opacity="0.4">
    01110100 01100101
  </text>
  <text x="500" y="280" font-family="monospace" font-size="20" fill="url(#binaryGradient)" opacity="0.5">
    01100011 01101000
  </text>
  
  <!-- Wolf geometric design (simplified representation) -->
  <g transform="translate(400, 300)">
    <!-- Head main shape -->
    <polygon points="0,-120 -60,-60 -40,0 -60,60 0,80 60,60 40,0 60,-60" fill="url(#wolfGradient1)" opacity="0.9"/>
    
    <!-- Ears -->
    <polygon points="-50,-100 -70,-140 -40,-120" fill="url(#wolfGradient2)"/>
    <polygon points="50,-100 70,-140 40,-120" fill="#4A90E2"/>
    
    <!-- Snout -->
    <polygon points="0,40 -30,70 0,90 30,70" fill="#E8F4F8"/>
    <polygon points="0,50 -20,70 0,80 20,70" fill="#D1E7F0"/>
    
    <!-- Eyes -->
    <circle cx="-25" cy="-40" r="8" fill="#1E3A5F"/>
    <circle cx="25" cy="-40" r="8" fill="#1E3A5F"/>
    
    <!-- Geometric fur details -->
    <polygon points="-35,-70 -50,-50 -30,-40" fill="#7DD3FC" opacity="0.7"/>
    <polygon points="35,-70 50,-50 30,-40" fill="#7DD3FC" opacity="0.7"/>
    <polygon points="-20,0 -40,20 -15,25" fill="#4A90E2" opacity="0.6"/>
    <polygon points="20,0 40,20 15,25" fill="#4A90E2" opacity="0.6"/>
  </g>
  
  <!-- WOLF BYTE text -->
  <text x="400" y="550" font-family="Arial, sans-serif" font-size="72" font-weight="900" text-anchor="middle" fill="#1E3A5F">WOLF BYTE</text>
</svg>
